PathFileType	4	(X/Y/Z)	C:\Users\Basilio\Documents\Thesis Gigler\squatting_fais\c3dfiles\039\SLS_pre_front5\markers_experimental.trc
DataRate	CameraRate	NumFrames	NumMarkers	Units	OrigDataRate	OrigDataStartFrame	OrigNumFrames
200.000000	200.000000	4	63	mm	200.000000	1494	1992
Frame#	Time	FHD			LBHD			RBHD			C7			T10			LSHO			LUUPA			LMUPA			LDUPA			LLEP			LMEP			LUL			LRFIN			RSHO			RUPA1			RMUPA			RDUPA			RLEP			RMEP			RRAD			RUL			RUFIN			LASI			RASI			USACR			LSACR			RSACR			LTHI1			LTHI2			LTHI3			LTHI4			LLFC			LMFC			LTIB1			LTIB2			LTIB3			LTIB4			LLMAL			LMMAL			LHEE			LMT1			LMT2			LMT5			RTHI			RTHI2			RTHI3			RTHI4			RLFC			RMFC			RTIB1			RTIB2			RTIB3			RTIB4			RLMAL			RMMAL			RHEE			RMT1			RMT2			RMT5			LRAD			CLAV			*61			*62			
		X1	Y1	Z1	X2	Y2	Z2	X3	Y3	Z3	X4	Y4	Z4	X5	Y5	Z5	X6	Y6	Z6	X7	Y7	Z7	X8	Y8	Z8	X9	Y9	Z9	X10	Y10	Z10	X11	Y11	Z11	X12	Y12	Z12	X13	Y13	Z13	X14	Y14	Z14	X15	Y15	Z15	X16	Y16	Z16	X17	Y17	Z17	X18	Y18	Z18	X19	Y19	Z19	X20	Y20	Z20	X21	Y21	Z21	X22	Y22	Z22	X23	Y23	Z23	X24	Y24	Z24	X25	Y25	Z25	X26	Y26	Z26	X27	Y27	Z27	X28	Y28	Z28	X29	Y29	Z29	X30	Y30	Z30	X31	Y31	Z31	X32	Y32	Z32	X33	Y33	Z33	X34	Y34	Z34	X35	Y35	Z35	X36	Y36	Z36	X37	Y37	Z37	X38	Y38	Z38	X39	Y39	Z39	X40	Y40	Z40	X41	Y41	Z41	X42	Y42	Z42	X43	Y43	Z43	X44	Y44	Z44	X45	Y45	Z45	X46	Y46	Z46	X47	Y47	Z47	X48	Y48	Z48	X49	Y49	Z49	X50	Y50	Z50	X51	Y51	Z51	X52	Y52	Z52	X53	Y53	Z53	X54	Y54	Z54	X55	Y55	Z55	X56	Y56	Z56	X57	Y57	Z57	X58	Y58	Z58	X59	Y59	Z59	X60	Y60	Z60	X61	Y61	Z61	X62	Y62	Z62	X63	Y63	Z63	

1495	7.47	-380.5002441406251	1758.3251953125	-582.7715454101564	nan	nan	nan	-510.1988830566407	1732.610717773438	-557.6877441406251	-579.4913940429689	1573.324340820313	-664.8765258789064	-588.8854370117189	1267.175903320313	-733.9636230468751	-495.6797790527345	1605.236572265625	-828.0249023437502	-371.3410034179688	1567.70703125	-998.9938964843752	-340.5785827636719	1601.671020507813	-978.4768676757815	-306.9415283203126	1578.450561523438	-1023.00341796875	-242.1616363525391	1589.756713867188	-1043.536254882813	-221.9664764404297	1514.74658203125	-1011.679870605469	28.3977222442627	1671.8720703125	-997.9232177734377	83.21488189697267	1714.448608398438	-901.692810058594	-467.2535400390626	1566.850708007813	-510.7313537597657	-322.4313354492188	1483.94189453125	-395.258026123047	-291.5140380859376	1520.682739257813	-412.1277770996095	-254.8750152587891	1478.566162109375	-388.105438232422	-190.5911560058594	1491.326049804688	-386.4969482421876	-179.9382019042969	1429.439086914063	-433.7981872558595	104.774658203125	1542.244018554688	-423.3209838867189	96.55557250976565	1522.594848632813	-349.8289794921876	189.6595306396485	1573.684204101563	-402.2424621582032	-410.8096618652345	1109.212524414063	-856.5238037109377	-410.4768981933595	1095.034545898438	-629.8683471679689	-598.4064941406251	1124.963134765625	-739.8314819335939	-598.6339721679689	1093.88720703125	-769.4057617187502	-601.3673095703126	1093.306884765625	-711.2963867187501	-285.4888610839844	915.205749511719	-949.5071411132815	-201.1462402343751	902.635192871094	-955.2542114257815	-176.5329284667969	941.722106933594	-946.7468261718752	-171.4890747070313	848.6804809570315	-948.8917236328127	-79.4328079223633	786.6286621093752	-947.6939697265627	-31.4178810119629	781.8397216796877	-839.9783935546877	40.25048446655274	681.9922485351564	-938.570983886719	-11.05245876312256	619.0878295898439	-975.7327880859377	29.95628929138184	630.9040527343751	-963.051452636719	61.52645492553712	556.1264648437501	-925.8094482421877	56.91780853271486	378.6690979003907	-957.6765136718752	88.62267303466798	381.7954711914063	-875.9299316406252	29.52914428710938	293.6234741210938	-912.0362548828127	235.8157958984376	400.0388488769532	-935.656433105469	221.0501403808594	404.4307250976564	-974.9381103515627	178.8699493408203	369.7591552734376	-1021.995971679688	-416.5981445312501	812.886413574219	-574.7980346679689	-366.5326538085938	769.0574951171877	-569.9193115234376	-335.9879455566407	779.269958496094	-571.0488891601564	-373.4391784667969	684.9888916015626	-586.7160644531251	-378.3234252929688	543.0704956054689	-626.4386596679689	-319.8056945800782	548.5974731445314	-730.1147460937501	-328.6922302246094	336.0351867675782	-651.6425781250001	-409.3546142578126	268.4686889648438	-673.7258911132814	-364.5050354003907	260.7962951660157	-663.3700561523439	-337.3848571777344	215.6190795898438	-692.9459228515626	-395.9747619628907	112.7242813110352	-696.9857788085939	-355.5890197753907	148.7672576904297	-768.5579223632815	-454.8551025390626	100.9746551513672	-764.3595581054689	-229.0771636962891	84.49452972412111	-754.3932495117189	-234.7237548828126	75.67888641357423	-708.6031494140626	-291.6713867187501	35.01899337768555	-676.7257080078126	16.36063003540039	1663.751586914063	-923.2001953125002	-430.3172912597657	1521.242797851563	-677.3964233398439	nan	nan	nan	nan	nan	nan	
1496	7.475000000000001	-381.2720031738282	1758.519409179688	-582.0436401367189	nan	nan	nan	-510.7788085937501	1732.470825195313	-557.3170776367189	-579.7546997070314	1573.099853515625	-664.8162841796876	-588.6407470703126	1267.058715820313	-734.1634521484376	-495.9759521484376	1605.212158203125	-828.1922607421877	-373.1015014648438	1565.969482421875	-1000.236999511719	-341.9331970214844	1599.852783203125	-980.4517211914065	-308.8527832031251	1576.717163085938	-1025.004028320313	-243.9915161132813	1587.477172851563	-1046.044189453125	-224.0302886962891	1512.462768554688	-1014.0322265625	26.26913070678712	1669.600463867188	-999.1546020507815	80.37999725341798	1712.56298828125	-902.8028564453127	-468.0513000488282	1566.402954101563	-510.3056945800782	-324.1401672363282	1482.768432617188	-393.7781677246095	-292.9017944335938	1519.359497070313	-410.362762451172	-256.6303710937501	1477.232543945313	-386.1907653808595	-192.3033752441407	1489.657470703125	-384.0198974609376	-181.5181579589844	1428.111938476563	-431.2040405273439	103.3901290893555	1539.822265625	-419.1388244628907	94.77737426757814	1520.208618164063	-345.1647949218751	188.1248626708985	1571.060546875	-397.294158935547	-410.3792419433595	1109.438110351563	-856.724548339844	-409.9438781738282	1094.962768554688	-630.0490722656251	-597.8436889648439	1125.084228515625	-739.9757690429689	-598.0722045898439	1093.967895507813	-769.4854736328127	-600.8939208984376	1093.380493164063	-711.4079589843751	-285.0435485839844	915.231140136719	-949.9451293945315	-200.7082519531251	902.5297851562502	-955.6693115234377	-176.3806304931641	941.849060058594	-947.2532348632815	-171.0904998779297	848.655212402344	-949.4206542968752	-79.08431243896486	786.580749511719	-948.1762695312502	-31.16834831237794	781.572937011719	-840.5145263671877	39.69808197021485	681.3936767578126	-939.1758422851565	-11.8488245010376	618.8129882812501	-976.231140136719	29.13139343261719	630.3026733398439	-963.4448852539065	60.38869857788087	555.2584228515626	-926.236755371094	54.03676223754884	377.5604248046876	-958.2478027343752	86.2820281982422	380.8976745605469	-876.2805175781252	26.52223777770997	292.8069458007813	-912.4224853515627	233.317123413086	398.2403564453126	-936.1260986328127	218.8738250732422	402.2937622070314	-975.1029052734377	176.2899475097657	368.3006591796876	-1022.342102050781	-415.9309082031251	812.8848876953127	-575.1356811523439	-365.9330444335938	769.0485839843752	-570.2421264648439	-335.4187316894532	779.2536621093752	-571.4258422851564	-372.9736022949219	685.0174560546876	-587.0208129882814	-378.1052551269532	543.1429443359376	-626.5455932617189	-319.3688964843751	548.5426635742189	-730.2095336914064	-328.6093139648438	336.0344848632813	-651.7150878906251	-409.340789794922	268.5174560546876	-673.8134765625001	-364.4474182128907	260.8331298828126	-663.4523315429689	-337.3664550781251	215.5596160888672	-692.9803466796876	-395.9700622558595	112.69140625	-697.1003417968751	-355.6304626464844	148.82421875	-768.5787353515627	-454.8685607910157	100.9609069824219	-764.3318481445314	-229.1001281738282	84.64238739013673	-754.4288330078126	-234.7300109863282	75.78722381591798	-708.6141967773439	-291.6946411132813	35.09434127807618	-676.7642211914064	13.89390277862549	1661.94677734375	-924.4571533203127	-430.4341735839845	1521.406982421875	-677.3264770507814	nan	nan	nan	nan	nan	nan	
1497	7.48	-382.0320434570313	1758.525390625	-581.2958374023439	nan	nan	nan	-511.4644775390626	1732.138671875	-556.7645263671876	-580.1869506835939	1572.911865234375	-664.7073364257814	-588.2885742187501	1266.942138671875	-734.2322998046876	-496.2803955078126	1605.223876953125	-828.4074707031252	-374.6166992187501	1564.230590820313	-1001.478393554688	-343.1537475585938	1598.353149414063	-982.2065429687502	-310.7275085449219	1574.357055664063	-1027.063842773438	-246.1742706298829	1585.227416992188	-1048.540283203125	-226.2103424072266	1510.03076171875	-1016.293823242188	24.14047813415528	1667.2880859375	-1000.473571777344	77.63415527343751	1710.256225585938	-903.863220214844	-468.7202453613282	1566.0302734375	-510.0300598144532	-325.6685180664063	1481.445434570313	-392.7406616210939	-294.6665344238282	1517.927490234375	-408.889129638672	-258.3249511718751	1475.535034179688	-384.2585754394532	-194.0806121826172	1487.733032226563	-381.3684692382813	-183.029769897461	1426.174194335938	-428.7573242187501	102.1172256469727	1537.379272460938	-414.8506164550782	92.87969970703126	1517.599731445313	-341.0590209960938	186.6212921142578	1568.322021484375	-392.2793884277345	-409.8357543945314	1109.654052734375	-856.838073730469	-409.2299804687501	1095.125	-630.3128051757814	-597.2937011718751	1125.3037109375	-740.0370483398439	-597.5981445312501	1094.009887695313	-769.611511230469	-600.3334350585939	1093.42822265625	-711.5539550781251	-284.6279602050782	915.3115844726565	-950.3336181640627	-200.2559661865235	902.517761230469	-956.0391235351565	-175.957504272461	941.7073974609377	-947.6236572265627	-170.7148742675782	848.5766601562502	-949.878112792969	-78.7311477661133	786.4532470703127	-948.624938964844	-31.05371665954591	781.3703613281252	-841.0485839843752	39.29677963256837	680.7261962890626	-939.6790161132815	-12.56097412109375	618.3445434570314	-976.765075683594	28.31738662719727	629.5506591796876	-963.869567871094	59.24288558959962	554.3131713867189	-926.7656860351565	51.60902404785158	376.8567810058594	-958.6688232421877	83.78955841064455	379.8439331054688	-876.7504882812502	23.62475395202637	291.8149108886719	-912.9692382812502	230.8985443115235	396.6728515625001	-936.6094970703127	216.5075073242188	400.4454650878907	-975.4226074218752	173.6985931396485	366.7018432617188	-1022.84716796875	-415.3495483398439	812.9790649414065	-575.4703369140626	-365.3828125000001	769.1804199218752	-570.4022827148439	-334.9179687500001	779.2746582031252	-571.7487792968751	-372.5774230957032	685.0082397460939	-587.1472167968751	-377.9083862304688	543.2200927734376	-626.7158203125001	-319.1786193847657	548.5554809570314	-730.3908081054689	-328.4742736816407	336.0408935546876	-651.7301635742189	-409.2549438476564	268.5825195312501	-673.8949584960939	-364.3652038574219	260.8507995605469	-663.5198364257814	-337.1554565429688	215.297103881836	-692.9440917968751	-396.013641357422	112.7049789428711	-697.0811767578126	-355.6405029296876	148.8172302246094	-768.5936279296877	-454.889373779297	100.9280166625977	-764.3266601562501	-229.1360778808594	84.85211181640626	-754.4211425781251	-234.7695617675782	75.89379882812501	-708.5462646484376	-291.6944580078126	35.15108489990235	-676.8340454101564	11.28222942352295	1659.609375	-925.9146728515627	-430.6405639648439	1521.55419921875	-677.1867065429689	nan	nan	nan	nan	nan	nan	
1498	7.485	-382.5565795898438	1758.545043945313	-580.8201293945314	nan	nan	nan	-512.1998901367189	1732.051147460938	-556.1631469726564	-580.6513061523439	1572.738037109375	-664.5065307617189	-587.9176025390626	1266.785400390625	-734.4530029296876	-496.5939331054689	1605.360229492188	-828.546325683594	-376.4593811035157	1562.597412109375	-1002.820129394531	-344.8287048339844	1596.58740234375	-984.0901489257815	-312.5895385742188	1572.48681640625	-1028.89794921875	-248.2928314208985	1582.881591796875	-1051.050170898438	-228.1090087890626	1507.79150390625	-1018.724304199219	21.90034484863282	1664.886108398438	-1001.814331054688	75.02625274658205	1707.838012695313	-904.9837646484377	-469.3072509765626	1565.537963867188	-509.7064208984376	-327.3825988769532	1480.130249023438	-391.0133361816407	-295.7947082519532	1516.826538085938	-406.7745666503907	-260.1015930175782	1474.039184570313	-382.3488159179688	-195.7465515136719	1485.984985351563	-378.6691894531251	-184.6315460205078	1424.596557617188	-426.2535400390626	100.6868286132813	1534.8173828125	-410.4595947265626	91.05071258544923	1514.951904296875	-336.5903015136719	185.2356109619141	1565.4638671875	-387.3934631347657	-409.2234497070314	1109.820678710938	-857.113708496094	-408.5918884277345	1095.142700195313	-630.4788818359376	-596.7017822265626	1125.279663085938	-740.1599731445314	-597.0884399414064	1094.051147460938	-769.7290649414065	-599.7702026367189	1093.472900390625	-711.7916259765626	-284.2801818847657	915.3498535156252	-950.7896728515627	-199.7386016845704	902.462829589844	-956.4609985351565	-175.5102081298828	941.7117919921877	-947.9434204101565	-170.3625183105469	848.530944824219	-950.3985595703127	-78.67089080810548	786.221862792969	-949.1223754882815	-30.82532691955567	780.9263305664065	-841.5642700195315	39.00304412841798	679.9865112304689	-940.0542602539065	-13.4556474685669	617.8235473632814	-977.236511230469	27.74133300781251	628.7039794921876	-964.430114746094	57.86175918579103	553.4404907226564	-926.9613037109377	49.12792968750001	376.0124511718751	-959.0313720703127	81.48876190185548	378.6484375000001	-877.1373291015627	20.75375366210938	291.0375671386719	-913.404479980469	228.0137023925782	394.764129638672	-937.249206542969	213.9600524902344	398.9276123046876	-975.9419555664065	171.2870788574219	365.4730529785157	-1023.178833007813	-414.8594665527345	813.0750732421877	-575.6458740234376	-365.4042968750001	768.6000976562502	-570.7576904296876	-334.4693908691407	779.2957763671877	-571.9411010742189	-372.4276428222657	684.8063964843751	-587.3584594726564	-377.6401367187501	543.2002563476564	-626.8662719726564	-318.8807067871094	548.5361328125001	-730.4608154296876	-328.4091491699219	335.9654846191407	-651.7820434570314	-409.1968078613282	268.6180114746094	-673.9395141601564	-364.3301086425782	260.8687133789063	-663.5532836914064	-337.1585388183594	215.2876892089844	-693.0015869140626	-396.011688232422	112.7104415893555	-697.0775146484376	-355.6997680664063	148.8615264892578	-768.5922851562502	-454.9353332519532	100.9283828735352	-764.3106689453126	-229.1755065917969	85.08351135253908	-754.3981323242189	-234.8278350830079	76.04974365234376	-708.5263061523439	-291.6798706054688	35.20483016967774	-676.8857421875001	8.509281158447267	1656.970703125	-927.234313964844	-431.0006103515626	1521.757080078125	-677.0731201171876	nan	nan	nan	nan	nan	nan	
